# xmcd CD database file
#
# Track frame offsets:
#	150
#	18405
#	36616
#	48131
#	59922
#	73707
#	92170
#	106309
#	120121
#	137080
#	153326
#	165585
#	169067
#
# Disc length: 2452 seconds
#
# Revision: 0
# Processed by: cddbd v1.5.2PL0 Copyright (c) Steve Scherf et al.
# Submitted via: CDex 1.78
#
DISCID=ad09920d
DTITLE=Jamie Cotter - That's My Country
DYEAR=2002
DGENRE=Country
TTITLE0=That's My Country
TTITLE1=Her Used To Be
TTITLE2=Mel's Blind
TTITLE3=You Can't Get Back
TTITLE4=Walk A Mile In My Shoes
TTITLE5=Dirt Roads, Simple Life
TTITLE6=Mama In My Dreams
TTITLE7=Ready To Burn
TTITLE8=Mama Earned The Silver
TTITLE9=Don't You Worry
TTITLE10=Mama Teaching Angels To Sing
TTITLE11=The Memory Of A Friend (Intro)
TTITLE12=The Memory Of A Friend
EXTD=YEAR: 2002
EXTT0=
EXTT1=
EXTT2=
EXTT3=
EXTT4=
EXTT5=
EXTT6=
EXTT7=
EXTT8=
EXTT9=
EXTT10=
EXTT11=
EXTT12=
PLAYORDER=
